<svg xmlns="http://www.w3.org/2000/svg" xmlns:osb="http://www.openswatchbook.org/uri/2009/osb" xmlns:svg="http://www.w3.org/2000/svg" id="svg2" width="757.48" height="206.879" version="1.1" viewBox="0 0 710.137 193.949"><defs id="defs4"><marker id="marker7546" orient="auto" refX="0" refY="0" style="overflow:visible"><path id="path7548" d="M 0,-7.0710768 -7.0710894,0 0,7.0710589 7.0710462,0 0,-7.0710768 Z" transform="scale(0.8,0.8)" style="fill:#00a;fill-opacity:1;fill-rule:evenodd;stroke:#000;stroke-width:1pt;stroke-opacity:1"/></marker><marker id="marker7542" orient="auto" refX="0" refY="0" style="overflow:visible"><path id="path7544" d="M -5,-5 -5,5 5,5 5,-5 -5,-5 Z" transform="scale(0.2,0.2)" style="fill:#00a;fill-opacity:1;fill-rule:evenodd;stroke:#000;stroke-width:1pt;stroke-opacity:1"/></marker><marker id="marker7538" orient="auto" refX="0" refY="0" style="overflow:visible"><path id="path7540" d="M -5,-5 -5,5 5,5 5,-5 -5,-5 Z" transform="scale(0.4,0.4)" style="fill:#00a;fill-opacity:1;fill-rule:evenodd;stroke:#000;stroke-width:1pt;stroke-opacity:1"/></marker><marker id="marker7534" orient="auto" refX="0" refY="0" style="overflow:visible"><path id="path7536" d="M -5,-5 -5,5 5,5 5,-5 -5,-5 Z" transform="scale(0.8,0.8)" style="fill:#00a;fill-opacity:1;fill-rule:evenodd;stroke:#000;stroke-width:1pt;stroke-opacity:1"/></marker><marker id="marker7530" orient="auto" refX="0" refY="0" style="overflow:visible"><path id="path7532" d="m -2.5,-1 c 0,2.76 -2.24,5 -5,5 -2.76,0 -5,-2.24 -5,-5 0,-2.76 2.24,-5 5,-5 2.76,0 5,2.24 5,5 z" transform="matrix(0.2,0,0,0.2,1.48,0.2)" style="fill:#00a;fill-opacity:1;fill-rule:evenodd;stroke:#000;stroke-width:1pt;stroke-opacity:1"/></marker><marker id="marker7526" orient="auto" refX="0" refY="0" style="overflow:visible"><path id="path7528" d="m -2.5,-1 c 0,2.76 -2.24,5 -5,5 -2.76,0 -5,-2.24 -5,-5 0,-2.76 2.24,-5 5,-5 2.76,0 5,2.24 5,5 z" transform="matrix(0.4,0,0,0.4,2.96,0.4)" style="fill:#00a;fill-opacity:1;fill-rule:evenodd;stroke:#000;stroke-width:1pt;stroke-opacity:1"/></marker><marker id="marker7522" orient="auto" refX="0" refY="0" style="overflow:visible"><path id="path7524" d="m -2.5,-1 c 0,2.76 -2.24,5 -5,5 -2.76,0 -5,-2.24 -5,-5 0,-2.76 2.24,-5 5,-5 2.76,0 5,2.24 5,5 z" transform="matrix(0.8,0,0,0.8,5.92,0.8)" style="fill:#00a;fill-opacity:1;fill-rule:evenodd;stroke:#000;stroke-width:1pt;stroke-opacity:1"/></marker><marker style="overflow:visible" id="marker7512" orient="auto" refX="0" refY="0"><g id="g7514" style="fill:#00a;fill-opacity:1;stroke:#000;stroke-opacity:1"><path style="fill:#00a;fill-opacity:1;stroke:#000;stroke-width:1.14999998;stroke-linecap:square;stroke-opacity:1" id="path7516" d="M 0,0 -2,0"/><path style="fill:#00a;fill-opacity:1;fill-rule:evenodd;stroke:#000;stroke-opacity:1" id="path7518" d="M 0,0 -13,4 -9,0 -13,-4 0,0 Z"/><path style="fill:#00a;fill-opacity:1;stroke:#000;stroke-width:1;stroke-linecap:square;stroke-opacity:1" id="path7520" d="M 0,-4 0,40"/></g></marker><marker style="overflow:visible" id="marker7502" orient="auto" refX="0" refY="0"><g id="g7504" style="fill:#00a;fill-opacity:1;stroke:#000;stroke-opacity:1"><path style="fill:#00a;fill-opacity:1;stroke:#000;stroke-width:1.14999998;stroke-linecap:square;stroke-opacity:1" id="path7506" d="M 0,0 2,0"/><path style="fill:#00a;fill-opacity:1;fill-rule:evenodd;stroke:#000;stroke-opacity:1" id="path7508" d="M 0,0 13,4 9,0 13,-4 0,0 Z"/><path style="fill:#00a;fill-opacity:1;stroke:#000;stroke-width:1;stroke-linecap:square;stroke-opacity:1" id="path7510" d="M 0,-4 0,40"/></g></marker><marker id="marker7486" orient="auto" refX="0" refY="0" style="overflow:visible"><g id="g7488" transform="scale(-1.2,-1.2)" style="fill:#00a;fill-opacity:1;stroke:#000;stroke-opacity:1"><path id="path7490" d="M -3.8048674,-3.9585227 0.54352094,0" style="fill:#00a;fill-opacity:1;fill-rule:evenodd;stroke:#000;stroke-width:.80000001;stroke-linecap:round;stroke-opacity:1"/><path id="path7492" d="M -1.2866832,-3.9585227 3.0617053,0" style="fill:#00a;fill-opacity:1;fill-rule:evenodd;stroke:#000;stroke-width:.80000001;stroke-linecap:round;stroke-opacity:1"/><path id="path7494" d="M 1.3053582,-3.9585227 5.6537466,0" style="fill:#00a;fill-opacity:1;fill-rule:evenodd;stroke:#000;stroke-width:.80000001;stroke-linecap:round;stroke-opacity:1"/><path id="path7496" d="M -3.8048674,4.1775838 0.54352094,0.21974226" style="fill:#00a;fill-opacity:1;fill-rule:evenodd;stroke:#000;stroke-width:.80000001;stroke-linecap:round;stroke-opacity:1"/><path id="path7498" d="M -1.2866832,4.1775838 3.0617053,0.21974226" style="fill:#00a;fill-opacity:1;fill-rule:evenodd;stroke:#000;stroke-width:.80000001;stroke-linecap:round;stroke-opacity:1"/><path id="path7500" d="M 1.3053582,4.1775838 5.6537466,0.21974226" style="fill:#00a;fill-opacity:1;fill-rule:evenodd;stroke:#000;stroke-width:.80000001;stroke-linecap:round;stroke-opacity:1"/></g></marker><marker id="marker7482" orient="auto" refX="0" refY="0" style="overflow:visible"><path id="path7484" d="M 8.7185878,4.0337352 -2.2072895,0.01601326 8.7185884,-4.0017078 c -1.7454984,2.3720609 -1.7354408,5.6174519 -6e-7,8.035443 z" transform="matrix(-0.3,0,0,-0.3,0.69,0)" style="fill:#00a;fill-opacity:1;fill-rule:evenodd;stroke:#000;stroke-width:.625;stroke-linejoin:round;stroke-opacity:1"/></marker><marker id="marker7478" orient="auto" refX="0" refY="0" style="overflow:visible"><path id="path7480" d="M 8.7185878,4.0337352 -2.2072895,0.01601326 8.7185884,-4.0017078 c -1.7454984,2.3720609 -1.7354408,5.6174519 -6e-7,8.035443 z" transform="matrix(0.3,0,0,0.3,-0.69,0)" style="fill:#00a;fill-opacity:1;fill-rule:evenodd;stroke:#000;stroke-width:.625;stroke-linejoin:round;stroke-opacity:1"/></marker><marker id="marker7474" orient="auto" refX="0" refY="0" style="overflow:visible"><path id="path7476" d="M 8.7185878,4.0337352 -2.2072895,0.01601326 8.7185884,-4.0017078 c -1.7454984,2.3720609 -1.7354408,5.6174519 -6e-7,8.035443 z" transform="scale(-0.6,-0.6)" style="fill:#00a;fill-opacity:1;fill-rule:evenodd;stroke:#000;stroke-width:.625;stroke-linejoin:round;stroke-opacity:1"/></marker><marker id="marker7470" orient="auto" refX="0" refY="0" style="overflow:visible"><path id="path7472" d="M 8.7185878,4.0337352 -2.2072895,0.01601326 8.7185884,-4.0017078 c -1.7454984,2.3720609 -1.7354408,5.6174519 -6e-7,8.035443 z" transform="scale(0.6,0.6)" style="fill:#00a;fill-opacity:1;fill-rule:evenodd;stroke:#000;stroke-width:.625;stroke-linejoin:round;stroke-opacity:1"/></marker><marker id="marker7466" orient="auto" refX="0" refY="0" style="overflow:visible"><path id="path7468" d="M 8.7185878,4.0337352 -2.2072895,0.01601326 8.7185884,-4.0017078 c -1.7454984,2.3720609 -1.7354408,5.6174519 -6e-7,8.035443 z" transform="matrix(-1.1,0,0,-1.1,-1.1,0)" style="fill:#00a;fill-opacity:1;fill-rule:evenodd;stroke:#000;stroke-width:.625;stroke-linejoin:round;stroke-opacity:1"/></marker><marker id="marker7462" orient="auto" refX="0" refY="0" style="overflow:visible"><path id="path7464" d="M 8.7185878,4.0337352 -2.2072895,0.01601326 8.7185884,-4.0017078 c -1.7454984,2.3720609 -1.7354408,5.6174519 -6e-7,8.035443 z" transform="matrix(1.1,0,0,1.1,1.1,0)" style="fill:#00a;fill-opacity:1;fill-rule:evenodd;stroke:#000;stroke-width:.625;stroke-linejoin:round;stroke-opacity:1"/></marker><marker id="marker7458" orient="auto" refX="0" refY="0" style="overflow:visible"><path id="path7460" d="M 0,0 5,-5 -12.5,0 5,5 0,0 Z" transform="matrix(-0.2,0,0,-0.2,-1.2,0)" style="fill:#00a;fill-opacity:1;fill-rule:evenodd;stroke:#000;stroke-width:1pt;stroke-opacity:1"/></marker><marker id="marker7454" orient="auto" refX="0" refY="0" style="overflow:visible"><path id="path7456" d="M 0,0 5,-5 -12.5,0 5,5 0,0 Z" transform="matrix(0.2,0,0,0.2,1.2,0)" style="fill:#00a;fill-opacity:1;fill-rule:evenodd;stroke:#000;stroke-width:1pt;stroke-opacity:1"/></marker><marker id="marker7450" orient="auto" refX="0" refY="0" style="overflow:visible"><path id="path7452" d="M 0,0 5,-5 -12.5,0 5,5 0,0 Z" transform="matrix(-0.4,0,0,-0.4,-4,0)" style="fill:#00a;fill-opacity:1;fill-rule:evenodd;stroke:#000;stroke-width:1pt;stroke-opacity:1"/></marker><marker id="marker7446" orient="auto" refX="0" refY="0" style="overflow:visible"><path id="path7448" d="M 0,0 5,-5 -12.5,0 5,5 0,0 Z" transform="matrix(0.4,0,0,0.4,4,0)" style="fill:#00a;fill-opacity:1;fill-rule:evenodd;stroke:#000;stroke-width:1pt;stroke-opacity:1"/></marker><marker id="marker7442" orient="auto" refX="0" refY="0" style="overflow:visible"><path id="path7444" d="M 0,0 5,-5 -12.5,0 5,5 0,0 Z" transform="matrix(-0.8,0,0,-0.8,-10,0)" style="fill:#00a;fill-opacity:1;fill-rule:evenodd;stroke:#000;stroke-width:1pt;stroke-opacity:1"/></marker><marker id="marker7438" orient="auto" refX="0" refY="0" style="overflow:visible"><path id="path7440" d="M 0,0 5,-5 -12.5,0 5,5 0,0 Z" transform="matrix(0.8,0,0,0.8,10,0)" style="fill:#00a;fill-opacity:1;fill-rule:evenodd;stroke:#000;stroke-width:1pt;stroke-opacity:1"/></marker><marker id="marker7068" orient="auto" refX="0" refY="0" style="overflow:visible"><path id="path7070" d="M 8.7185878,4.0337352 -2.2072895,0.01601326 8.7185884,-4.0017078 c -1.7454984,2.3720609 -1.7354408,5.6174519 -6e-7,8.035443 z" transform="scale(-0.6,-0.6)" style="fill:#2a7fff;fill-opacity:1;fill-rule:evenodd;stroke:#000;stroke-width:.625;stroke-linejoin:round;stroke-opacity:1"/></marker><marker id="marker7064" orient="auto" refX="0" refY="0" style="overflow:visible"><path id="path7066" d="M 8.7185878,4.0337352 -2.2072895,0.01601326 8.7185884,-4.0017078 c -1.7454984,2.3720609 -1.7354408,5.6174519 -6e-7,8.035443 z" transform="scale(0.6,0.6)" style="fill-rule:evenodd;stroke-width:.625;stroke-linejoin:round"/></marker><marker id="marker7060" orient="auto" refX="0" refY="0" style="overflow:visible"><path id="path7062" d="M 8.7185878,4.0337352 -2.2072895,0.01601326 8.7185884,-4.0017078 c -1.7454984,2.3720609 -1.7354408,5.6174519 -6e-7,8.035443 z" transform="matrix(-1.1,0,0,-1.1,-1.1,0)" style="fill-rule:evenodd;stroke-width:.625;stroke-linejoin:round"/></marker><marker id="marker7056" orient="auto" refX="0" refY="0" style="overflow:visible"><path id="path7058" d="M 8.7185878,4.0337352 -2.2072895,0.01601326 8.7185884,-4.0017078 c -1.7454984,2.3720609 -1.7354408,5.6174519 -6e-7,8.035443 z" transform="matrix(1.1,0,0,1.1,1.1,0)" style="fill-rule:evenodd;stroke-width:.625;stroke-linejoin:round"/></marker><marker id="marker7052" orient="auto" refX="0" refY="0" style="overflow:visible"><path id="path7054" d="M 0,0 5,-5 -12.5,0 5,5 0,0 Z" transform="matrix(-0.2,0,0,-0.2,-1.2,0)" style="fill-rule:evenodd;stroke:#000;stroke-width:1pt"/></marker><marker id="marker7048" orient="auto" refX="0" refY="0" style="overflow:visible"><path id="path7050" d="M 0,0 5,-5 -12.5,0 5,5 0,0 Z" transform="matrix(0.2,0,0,0.2,1.2,0)" style="fill-rule:evenodd;stroke:#000;stroke-width:1pt"/></marker><marker id="marker7044" orient="auto" refX="0" refY="0" style="overflow:visible"><path id="path7046" d="M 0,0 5,-5 -12.5,0 5,5 0,0 Z" transform="matrix(-0.4,0,0,-0.4,-4,0)" style="fill-rule:evenodd;stroke:#000;stroke-width:1pt"/></marker><marker id="marker7040" orient="auto" refX="0" refY="0" style="overflow:visible"><path id="path7042" d="M 0,0 5,-5 -12.5,0 5,5 0,0 Z" transform="matrix(0.4,0,0,0.4,4,0)" style="fill-rule:evenodd;stroke:#000;stroke-width:1pt"/></marker><marker id="marker7036" orient="auto" refX="0" refY="0" style="overflow:visible"><path id="path7038" d="M 0,0 5,-5 -12.5,0 5,5 0,0 Z" transform="matrix(-0.8,0,0,-0.8,-10,0)" style="fill-rule:evenodd;stroke:#000;stroke-width:1pt"/></marker><marker id="marker7032" orient="auto" refX="0" refY="0" style="overflow:visible"><path id="path7034" d="M 0,0 5,-5 -12.5,0 5,5 0,0 Z" transform="matrix(0.8,0,0,0.8,10,0)" style="fill-rule:evenodd;stroke:#000;stroke-width:1pt"/></marker><marker id="marker6722" orient="auto" refX="0" refY="0" style="overflow:visible"><path id="path6724" d="M 8.7185878,4.0337352 -2.2072895,0.01601326 8.7185884,-4.0017078 c -1.7454984,2.3720609 -1.7354408,5.6174519 -6e-7,8.035443 z" transform="matrix(-1.1,0,0,-1.1,-1.1,0)" style="fill-rule:evenodd;stroke-width:.625;stroke-linejoin:round"/></marker><marker id="marker6718" orient="auto" refX="0" refY="0" style="overflow:visible"><path id="path6720" d="M 8.7185878,4.0337352 -2.2072895,0.01601326 8.7185884,-4.0017078 c -1.7454984,2.3720609 -1.7354408,5.6174519 -6e-7,8.035443 z" transform="matrix(1.1,0,0,1.1,1.1,0)" style="fill-rule:evenodd;stroke-width:.625;stroke-linejoin:round"/></marker><marker id="marker6714" orient="auto" refX="0" refY="0" style="overflow:visible"><path id="path6716" d="M 0,0 5,-5 -12.5,0 5,5 0,0 Z" transform="matrix(-0.2,0,0,-0.2,-1.2,0)" style="fill-rule:evenodd;stroke:#000;stroke-width:1pt"/></marker><marker id="marker6710" orient="auto" refX="0" refY="0" style="overflow:visible"><path id="path6712" d="M 0,0 5,-5 -12.5,0 5,5 0,0 Z" transform="matrix(0.2,0,0,0.2,1.2,0)" style="fill-rule:evenodd;stroke:#000;stroke-width:1pt"/></marker><marker id="marker6706" orient="auto" refX="0" refY="0" style="overflow:visible"><path id="path6708" d="M 0,0 5,-5 -12.5,0 5,5 0,0 Z" transform="matrix(-0.4,0,0,-0.4,-4,0)" style="fill-rule:evenodd;stroke:#000;stroke-width:1pt"/></marker><marker id="marker6702" orient="auto" refX="0" refY="0" style="overflow:visible"><path id="path6704" d="M 0,0 5,-5 -12.5,0 5,5 0,0 Z" transform="matrix(0.4,0,0,0.4,4,0)" style="fill-rule:evenodd;stroke:#000;stroke-width:1pt"/></marker><marker id="marker6698" orient="auto" refX="0" refY="0" style="overflow:visible"><path id="path6700" d="M 0,0 5,-5 -12.5,0 5,5 0,0 Z" transform="matrix(-0.8,0,0,-0.8,-10,0)" style="fill-rule:evenodd;stroke:#000;stroke-width:1pt"/></marker><marker id="marker6694" orient="auto" refX="0" refY="0" style="overflow:visible"><path id="path6696" d="M 0,0 5,-5 -12.5,0 5,5 0,0 Z" transform="matrix(0.8,0,0,0.8,10,0)" style="fill-rule:evenodd;stroke:#000;stroke-width:1pt"/></marker><marker id="DiamondS" orient="auto" refX="0" refY="0" style="overflow:visible"><path id="path6039" d="M 0,-7.0710768 -7.0710894,0 0,7.0710589 7.0710462,0 0,-7.0710768 Z" transform="scale(0.2,0.2)" style="fill-rule:evenodd;stroke:#000;stroke-width:1pt"/></marker><marker id="DiamondM" orient="auto" refX="0" refY="0" style="overflow:visible"><path id="path6036" d="M 0,-7.0710768 -7.0710894,0 0,7.0710589 7.0710462,0 0,-7.0710768 Z" transform="scale(0.4,0.4)" style="fill-rule:evenodd;stroke:#000;stroke-width:1pt"/></marker><marker id="DiamondL" orient="auto" refX="0" refY="0" style="overflow:visible"><path id="path6033" d="M 0,-7.0710768 -7.0710894,0 0,7.0710589 7.0710462,0 0,-7.0710768 Z" transform="scale(0.8,0.8)" style="fill-rule:evenodd;stroke:#000;stroke-width:1pt"/></marker><marker id="SquareS" orient="auto" refX="0" refY="0" style="overflow:visible"><path id="path6030" d="M -5,-5 -5,5 5,5 5,-5 -5,-5 Z" transform="scale(0.2,0.2)" style="fill-rule:evenodd;stroke:#000;stroke-width:1pt"/></marker><marker id="SquareM" orient="auto" refX="0" refY="0" style="overflow:visible"><path id="path6027" d="M -5,-5 -5,5 5,5 5,-5 -5,-5 Z" transform="scale(0.4,0.4)" style="fill-rule:evenodd;stroke:#000;stroke-width:1pt"/></marker><marker id="SquareL" orient="auto" refX="0" refY="0" style="overflow:visible"><path id="path6024" d="M -5,-5 -5,5 5,5 5,-5 -5,-5 Z" transform="scale(0.8,0.8)" style="fill-rule:evenodd;stroke:#000;stroke-width:1pt"/></marker><marker id="DotS" orient="auto" refX="0" refY="0" style="overflow:visible"><path id="path6021" d="m -2.5,-1 c 0,2.76 -2.24,5 -5,5 -2.76,0 -5,-2.24 -5,-5 0,-2.76 2.24,-5 5,-5 2.76,0 5,2.24 5,5 z" transform="matrix(0.2,0,0,0.2,1.48,0.2)" style="fill-rule:evenodd;stroke:#000;stroke-width:1pt"/></marker><marker id="DotM" orient="auto" refX="0" refY="0" style="overflow:visible"><path id="path6018" d="m -2.5,-1 c 0,2.76 -2.24,5 -5,5 -2.76,0 -5,-2.24 -5,-5 0,-2.76 2.24,-5 5,-5 2.76,0 5,2.24 5,5 z" transform="matrix(0.4,0,0,0.4,2.96,0.4)" style="fill-rule:evenodd;stroke:#000;stroke-width:1pt"/></marker><marker id="DotL" orient="auto" refX="0" refY="0" style="overflow:visible"><path id="path6015" d="m -2.5,-1 c 0,2.76 -2.24,5 -5,5 -2.76,0 -5,-2.24 -5,-5 0,-2.76 2.24,-5 5,-5 2.76,0 5,2.24 5,5 z" transform="matrix(0.8,0,0,0.8,5.92,0.8)" style="fill-rule:evenodd;stroke:#000;stroke-width:1pt"/></marker><marker style="overflow:visible" id="DistanceEnd" orient="auto" refX="0" refY="0"><g id="g2301"><path style="fill:none;stroke:#fff;stroke-width:1.14999998;stroke-linecap:square" id="path2316" d="M 0,0 -2,0"/><path style="fill:#000;fill-rule:evenodd;stroke:none" id="path2312" d="M 0,0 -13,4 -9,0 -13,-4 0,0 Z"/><path style="fill:none;stroke:#000;stroke-width:1;stroke-linecap:square" id="path2314" d="M 0,-4 0,40"/></g></marker><marker style="overflow:visible" id="DistanceStart" orient="auto" refX="0" refY="0"><g id="g2300"><path style="fill:none;stroke:#fff;stroke-width:1.14999998;stroke-linecap:square" id="path2306" d="M 0,0 2,0"/><path style="fill:#000;fill-rule:evenodd;stroke:none" id="path2302" d="M 0,0 13,4 9,0 13,-4 0,0 Z"/><path style="fill:none;stroke:#000;stroke-width:1;stroke-linecap:square" id="path2304" d="M 0,-4 0,40"/></g></marker><marker id="Tail" orient="auto" refX="0" refY="0" style="overflow:visible"><g id="g5990" transform="scale(-1.2,-1.2)"><path id="path5992" d="M -3.8048674,-3.9585227 0.54352094,0" style="fill:none;fill-rule:evenodd;stroke:#000;stroke-width:.80000001;stroke-linecap:round"/><path id="path5994" d="M -1.2866832,-3.9585227 3.0617053,0" style="fill:none;fill-rule:evenodd;stroke:#000;stroke-width:.80000001;stroke-linecap:round"/><path id="path5996" d="M 1.3053582,-3.9585227 5.6537466,0" style="fill:none;fill-rule:evenodd;stroke:#000;stroke-width:.80000001;stroke-linecap:round"/><path id="path5998" d="M -3.8048674,4.1775838 0.54352094,0.21974226" style="fill:none;fill-rule:evenodd;stroke:#000;stroke-width:.80000001;stroke-linecap:round"/><path id="path6000" d="M -1.2866832,4.1775838 3.0617053,0.21974226" style="fill:none;fill-rule:evenodd;stroke:#000;stroke-width:.80000001;stroke-linecap:round"/><path id="path6002" d="M 1.3053582,4.1775838 5.6537466,0.21974226" style="fill:none;fill-rule:evenodd;stroke:#000;stroke-width:.80000001;stroke-linecap:round"/></g></marker><marker id="Arrow2Send" orient="auto" refX="0" refY="0" style="overflow:visible"><path id="path5987" d="M 8.7185878,4.0337352 -2.2072895,0.01601326 8.7185884,-4.0017078 c -1.7454984,2.3720609 -1.7354408,5.6174519 -6e-7,8.035443 z" transform="matrix(-0.3,0,0,-0.3,0.69,0)" style="fill-rule:evenodd;stroke-width:.625;stroke-linejoin:round"/></marker><marker id="Arrow2Sstart" orient="auto" refX="0" refY="0" style="overflow:visible"><path id="path5984" d="M 8.7185878,4.0337352 -2.2072895,0.01601326 8.7185884,-4.0017078 c -1.7454984,2.3720609 -1.7354408,5.6174519 -6e-7,8.035443 z" transform="matrix(0.3,0,0,0.3,-0.69,0)" style="fill-rule:evenodd;stroke-width:.625;stroke-linejoin:round"/></marker><marker id="Arrow2Mend" orient="auto" refX="0" refY="0" style="overflow:visible"><path id="path5981" d="M 8.7185878,4.0337352 -2.2072895,0.01601326 8.7185884,-4.0017078 c -1.7454984,2.3720609 -1.7354408,5.6174519 -6e-7,8.035443 z" transform="scale(-0.6,-0.6)" style="fill-rule:evenodd;stroke-width:.625;stroke-linejoin:round"/></marker><marker id="marker6390" orient="auto" refX="0" refY="0" style="overflow:visible"><path id="path6392" d="M 8.7185878,4.0337352 -2.2072895,0.01601326 8.7185884,-4.0017078 c -1.7454984,2.3720609 -1.7354408,5.6174519 -6e-7,8.035443 z" transform="scale(0.6,0.6)" style="fill-rule:evenodd;stroke-width:.625;stroke-linejoin:round"/></marker><marker id="marker6386" orient="auto" refX="0" refY="0" style="overflow:visible"><path id="path6388" d="M 8.7185878,4.0337352 -2.2072895,0.01601326 8.7185884,-4.0017078 c -1.7454984,2.3720609 -1.7354408,5.6174519 -6e-7,8.035443 z" transform="matrix(-1.1,0,0,-1.1,-1.1,0)" style="fill-rule:evenodd;stroke-width:.625;stroke-linejoin:round"/></marker><marker id="marker6382" orient="auto" refX="0" refY="0" style="overflow:visible"><path id="path6384" d="M 8.7185878,4.0337352 -2.2072895,0.01601326 8.7185884,-4.0017078 c -1.7454984,2.3720609 -1.7354408,5.6174519 -6e-7,8.035443 z" transform="matrix(1.1,0,0,1.1,1.1,0)" style="fill-rule:evenodd;stroke-width:.625;stroke-linejoin:round"/></marker><marker id="marker6378" orient="auto" refX="0" refY="0" style="overflow:visible"><path id="path6380" d="M 0,0 5,-5 -12.5,0 5,5 0,0 Z" transform="matrix(-0.2,0,0,-0.2,-1.2,0)" style="fill-rule:evenodd;stroke:#000;stroke-width:1pt"/></marker><marker id="marker6374" orient="auto" refX="0" refY="0" style="overflow:visible"><path id="path6376" d="M 0,0 5,-5 -12.5,0 5,5 0,0 Z" transform="matrix(0.2,0,0,0.2,1.2,0)" style="fill-rule:evenodd;stroke:#000;stroke-width:1pt"/></marker><marker id="marker6370" orient="auto" refX="0" refY="0" style="overflow:visible"><path id="path6372" d="M 0,0 5,-5 -12.5,0 5,5 0,0 Z" transform="matrix(-0.4,0,0,-0.4,-4,0)" style="fill-rule:evenodd;stroke:#000;stroke-width:1pt"/></marker><marker id="marker6366" orient="auto" refX="0" refY="0" style="overflow:visible"><path id="path6368" d="M 0,0 5,-5 -12.5,0 5,5 0,0 Z" transform="matrix(0.4,0,0,0.4,4,0)" style="fill-rule:evenodd;stroke:#000;stroke-width:1pt"/></marker><marker id="marker6362" orient="auto" refX="0" refY="0" style="overflow:visible"><path id="path6364" d="M 0,0 5,-5 -12.5,0 5,5 0,0 Z" transform="matrix(-0.8,0,0,-0.8,-10,0)" style="fill-rule:evenodd;stroke:#000;stroke-width:1pt"/></marker><marker id="marker6358" orient="auto" refX="0" refY="0" style="overflow:visible"><path id="path6360" d="M 0,0 5,-5 -12.5,0 5,5 0,0 Z" transform="matrix(0.8,0,0,0.8,10,0)" style="fill-rule:evenodd;stroke:#000;stroke-width:1pt"/></marker><marker id="Arrow2Mstart" orient="auto" refX="0" refY="0" style="overflow:visible"><path id="path5978" d="M 8.7185878,4.0337352 -2.2072895,0.01601326 8.7185884,-4.0017078 c -1.7454984,2.3720609 -1.7354408,5.6174519 -6e-7,8.035443 z" transform="scale(0.6,0.6)" style="fill-rule:evenodd;stroke-width:.625;stroke-linejoin:round"/></marker><marker id="Arrow2Lend" orient="auto" refX="0" refY="0" style="overflow:visible"><path id="path5975" d="M 8.7185878,4.0337352 -2.2072895,0.01601326 8.7185884,-4.0017078 c -1.7454984,2.3720609 -1.7354408,5.6174519 -6e-7,8.035443 z" transform="matrix(-1.1,0,0,-1.1,-1.1,0)" style="fill-rule:evenodd;stroke-width:.625;stroke-linejoin:round"/></marker><marker id="Arrow2Lstart" orient="auto" refX="0" refY="0" style="overflow:visible"><path id="path5972" d="M 8.7185878,4.0337352 -2.2072895,0.01601326 8.7185884,-4.0017078 c -1.7454984,2.3720609 -1.7354408,5.6174519 -6e-7,8.035443 z" transform="matrix(1.1,0,0,1.1,1.1,0)" style="fill-rule:evenodd;stroke-width:.625;stroke-linejoin:round"/></marker><marker id="Arrow1Send" orient="auto" refX="0" refY="0" style="overflow:visible"><path id="path5969" d="M 0,0 5,-5 -12.5,0 5,5 0,0 Z" transform="matrix(-0.2,0,0,-0.2,-1.2,0)" style="fill-rule:evenodd;stroke:#000;stroke-width:1pt"/></marker><marker id="Arrow1Sstart" orient="auto" refX="0" refY="0" style="overflow:visible"><path id="path5966" d="M 0,0 5,-5 -12.5,0 5,5 0,0 Z" transform="matrix(0.2,0,0,0.2,1.2,0)" style="fill-rule:evenodd;stroke:#000;stroke-width:1pt"/></marker><marker id="Arrow1Mend" orient="auto" refX="0" refY="0" style="overflow:visible"><path id="path5963" d="M 0,0 5,-5 -12.5,0 5,5 0,0 Z" transform="matrix(-0.4,0,0,-0.4,-4,0)" style="fill-rule:evenodd;stroke:#000;stroke-width:1pt"/></marker><marker id="Arrow1Mstart" orient="auto" refX="0" refY="0" style="overflow:visible"><path id="path5960" d="M 0,0 5,-5 -12.5,0 5,5 0,0 Z" transform="matrix(0.4,0,0,0.4,4,0)" style="fill-rule:evenodd;stroke:#000;stroke-width:1pt"/></marker><marker id="marker6262" orient="auto" refX="0" refY="0" style="overflow:visible"><path id="path6264" d="M 0,0 5,-5 -12.5,0 5,5 0,0 Z" transform="matrix(-0.8,0,0,-0.8,-10,0)" style="fill-rule:evenodd;stroke:#000;stroke-width:1pt"/></marker><marker id="marker6258" orient="auto" refX="0" refY="0" style="overflow:visible"><path id="path6260" d="M 0,0 5,-5 -12.5,0 5,5 0,0 Z" transform="matrix(0.8,0,0,0.8,10,0)" style="fill-rule:evenodd;stroke:#000;stroke-width:1pt"/></marker><marker id="marker6230" orient="auto" refX="0" refY="0" style="overflow:visible"><path id="path6232" d="M 0,0 5,-5 -12.5,0 5,5 0,0 Z" transform="matrix(-0.8,0,0,-0.8,-10,0)" style="fill-rule:evenodd;stroke:#000;stroke-width:1pt"/></marker><marker id="marker6226" orient="auto" refX="0" refY="0" style="overflow:visible"><path id="path6228" d="M 0,0 5,-5 -12.5,0 5,5 0,0 Z" transform="matrix(0.8,0,0,0.8,10,0)" style="fill-rule:evenodd;stroke:#000;stroke-width:1pt"/></marker><marker id="Arrow1Lend" orient="auto" refX="0" refY="0" style="overflow:visible"><path id="path5957" d="M 0,0 5,-5 -12.5,0 5,5 0,0 Z" transform="matrix(-0.8,0,0,-0.8,-10,0)" style="fill-rule:evenodd;stroke:#000;stroke-width:1pt"/></marker><marker id="Arrow1Lstart" orient="auto" refX="0" refY="0" style="overflow:visible"><path id="path5954" d="M 0,0 5,-5 -12.5,0 5,5 0,0 Z" transform="matrix(0.8,0,0,0.8,10,0)" style="fill-rule:evenodd;stroke:#000;stroke-width:1pt"/></marker><linearGradient id="linearGradient5911" osb:paint="solid"><stop style="stop-color:#00a;stop-opacity:1" id="stop5913" offset="0"/></linearGradient></defs><metadata id="metadata7"/><g id="layer1" transform="translate(-14.479454,-30.575268)"><g id="g21091"><rect id="rect21089" width="710.137" height="193.949" x="14.479" y="30.575" ry="0" style="opacity:1;fill:#fff;fill-opacity:1;stroke:none;stroke-width:15;stroke-linecap:round;stroke-linejoin:round;stroke-miterlimit:4;stroke-dasharray:none;stroke-dashoffset:0;stroke-opacity:1"/><g id="g20540" transform="translate(-1781.9091,-909.13728)"><g id="g20453"><path style="color:#000;font-style:normal;font-variant:normal;font-weight:400;font-stretch:normal;font-size:medium;line-height:normal;font-family:sans-serif;text-indent:0;text-align:start;text-decoration:none;text-decoration-line:none;text-decoration-style:solid;text-decoration-color:#000;letter-spacing:normal;word-spacing:normal;text-transform:none;direction:ltr;block-progression:tb;writing-mode:lr-tb;baseline-shift:baseline;text-anchor:start;white-space:normal;clip-rule:nonzero;display:inline;overflow:visible;visibility:visible;opacity:1;isolation:auto;mix-blend-mode:normal;color-interpolation:sRGB;color-interpolation-filters:linearRGB;solid-color:#000;solid-opacity:1;fill:#14334f;fill-opacity:1;fill-rule:nonzero;stroke:none;stroke-width:2;stroke-linecap:butt;stroke-linejoin:round;stroke-miterlimit:4;stroke-dasharray:none;stroke-dashoffset:0;stroke-opacity:1;color-rendering:auto;image-rendering:auto;shape-rendering:auto;text-rendering:auto;enable-background:accumulate" id="path20361" d="m 1822.0047,1022.5955 c -7.2213,5e-4 -11.0885,8.4979 -6.3457,13.9434 l 24.2383,27.8242 24.2363,27.8261 c 3.3543,3.8505 9.3371,3.8505 12.6914,0 l 24.2363,-27.8261 24.2364,-27.8242 c 4.7428,-5.4455 0.8755,-13.9429 -6.3458,-13.9434 l -7.7559,0 0,9.2656 c 0,6.1476 -18.2295,11.1309 -40.7167,11.1309 -22.4873,0 -40.7168,-4.9833 -40.7168,-11.1309 l 0,-9.2656 z"/><ellipse style="fill:#14334f;fill-opacity:1;stroke:none;stroke-width:2;stroke-miterlimit:4;stroke-dasharray:none;stroke-opacity:1" id="ellipse20363" cx="1870.478" cy="-968.865" rx="38.438" ry="9.789" transform="scale(1,-1)"/><path id="path20365" d="m 1908.9164,971.04104 c 0,5.40611 -17.2093,9.78862 -38.4381,9.78862 -21.2287,0 -38.438,-4.38251 -38.4381,-9.78862 l 0,13.51648 c 0,5.4061 17.2094,9.78863 38.4381,9.78863 21.2288,0 38.4381,-4.38253 38.4381,-9.78863 z" style="fill:#00b5e0;fill-opacity:1;stroke:none;stroke-width:2;stroke-linejoin:round;stroke-miterlimit:4;stroke-dasharray:none;stroke-opacity:1"/><rect style="fill:#14334f;fill-opacity:1;stroke:none;stroke-width:2;stroke-linejoin:round;stroke-miterlimit:4;stroke-dasharray:none;stroke-opacity:1" id="rect20367" width="79.802" height="13.637" x="1830.578" y="1100.661" ry="6.566"/><path style="fill:#0595bc;fill-opacity:1;stroke:none;stroke-width:2;stroke-linejoin:round;stroke-miterlimit:4;stroke-dasharray:none;stroke-opacity:1" id="path20369" d="m 1908.9164,986.73387 c 0,5.40611 -17.2093,9.78862 -38.4381,9.78862 -21.2287,0 -38.438,-4.38251 -38.4381,-9.78862 l 0,13.51653 c 0,5.4061 17.2094,9.7887 38.4381,9.7887 21.2288,0 38.4381,-4.3826 38.4381,-9.7887 z"/><path id="path20371" d="m 1908.9164,1002.4268 c 0,5.4061 -17.2093,9.7886 -38.4381,9.7886 -21.2287,0 -38.438,-4.3825 -38.4381,-9.7886 l 0,13.5165 c 0,5.4061 17.2094,9.7886 38.4381,9.7886 21.2288,0 38.4381,-4.3825 38.4381,-9.7886 z" style="fill:#0a7498;fill-opacity:1;stroke:none;stroke-width:2;stroke-linejoin:round;stroke-miterlimit:4;stroke-dasharray:none;stroke-opacity:1"/><path style="fill:#0f5473;fill-opacity:1;stroke:none;stroke-width:2;stroke-linejoin:round;stroke-miterlimit:4;stroke-dasharray:none;stroke-opacity:1" id="path20373" d="m 1908.9164,1018.1197 c 0,5.4061 -17.2093,9.7886 -38.4381,9.7886 -21.2287,0 -38.438,-4.3825 -38.4381,-9.7886 l 0,13.5165 c 0,5.4061 17.2094,9.7886 38.4381,9.7886 21.2288,0 38.4381,-4.3825 38.4381,-9.7886 z"/></g><g id="g20534" transform="translate(0,5.1193175)"><g style="font-style:normal;font-weight:400;font-size:40px;line-height:125%;font-family:sans-serif;letter-spacing:0;word-spacing:0;fill:#14334f;fill-opacity:1;stroke:none;stroke-width:1px;stroke-linecap:butt;stroke-linejoin:miter;stroke-opacity:1" id="text20462"><path style="font-style:normal;font-variant:normal;font-weight:700;font-stretch:normal;font-size:125px;font-family:'Helvetica Neue';-inkscape-font-specification:'Helvetica Neue Bold';fill:#14334f;fill-opacity:1" id="path4990" d="m 1977.9235,1010.7554 0,-19.37503 -17.75,0 0,19.37503 -10.75,0 0,11.875 10.75,0 0,38.125 q 0,4.875 1.625,7.875 1.625,3 4.375,4.625 2.875,1.625 6.5,2.125 3.75,0.625 7.875,0.625 2.625,0 5.375,-0.125 2.75,-0.125 5,-0.5 l 0,-13.75 q -1.25,0.25 -2.625,0.375 -1.375,0.125 -2.875,0.125 -4.5,0 -6,-1.5 -1.5,-1.5 -1.5,-6 l 0,-32 13,0 0,-11.875 -13,0 z"/><path style="font-style:normal;font-variant:normal;font-weight:700;font-stretch:normal;font-size:125px;font-family:'Helvetica Neue';-inkscape-font-specification:'Helvetica Neue Bold';fill:#14334f;fill-opacity:1" id="path4992" d="m 2059.9938,1075.3804 0,-64.625 -17.75,0 0,33.875 q 0,9.875 -3.25,14.25 -3.25,4.25 -10.5,4.25 -6.375,0 -8.875,-3.875 -2.5,-4 -2.5,-12 l 0,-36.5 -17.75,0 0,39.75 q 0,6 1,11 1.125,4.875 3.75,8.375 2.625,3.375 7.125,5.25 4.625,1.875 11.75,1.875 5.625,0 11,-2.5 5.375,-2.5 8.75,-8.125 l 0.375,0 0,9 16.875,0 z"/><path style="font-style:normal;font-variant:normal;font-weight:700;font-stretch:normal;font-size:125px;font-family:'Helvetica Neue';-inkscape-font-specification:'Helvetica Neue Bold';fill:#14334f;fill-opacity:1" id="path4994" d="m 2073.5875,1010.7554 0,64.625 17.75,0 0,-29.125 q 0,-4.375 0.875,-8.125 0.875,-3.75 2.875,-6.5 2.125,-2.875 5.5,-4.5 3.375,-1.625 8.25,-1.625 1.625,0 3.375,0.25 1.75,0.125 3,0.375 l 0,-16.5 q -2.125,-0.625 -3.875,-0.625 -3.375,0 -6.5,1 -3.125,1 -5.875,2.875 -2.75,1.75 -4.875,4.375 -2.125,2.5 -3.375,5.5 l -0.25,0 0,-12 -16.875,0 z"/><path style="font-style:normal;font-variant:normal;font-weight:700;font-stretch:normal;font-size:125px;font-family:'Helvetica Neue';-inkscape-font-specification:'Helvetica Neue Bold';fill:#14334f;fill-opacity:1" id="path4996" d="m 2169.7906,1043.1304 q 0,4 -0.875,7.75 -0.875,3.75 -2.75,6.625 -1.875,2.875 -4.75,4.625 -2.75,1.625 -6.75,1.625 -3.875,0 -6.75,-1.625 -2.875,-1.75 -4.75,-4.625 -1.875,-2.875 -2.75,-6.625 -0.875,-3.75 -0.875,-7.75 0,-4.125 0.875,-7.875 0.875,-3.75 2.75,-6.625 1.875,-2.875 4.75,-4.5 2.875,-1.75 6.75,-1.75 4,0 6.75,1.75 2.875,1.625 4.75,4.5 1.875,2.875 2.75,6.625 0.875,3.75 0.875,7.875 z m -47.375,-57.00003 0,89.25003 16.875,0 0,-8.25 0.25,0 q 2.875,5.375 8.5,7.625 5.625,2.25 12.75,2.25 4.875,0 9.625,-2 4.75,-2 8.5,-6.125 3.875,-4.125 6.25,-10.5 2.375,-6.5 2.375,-15.375 0,-8.875 -2.375,-15.25 -2.375,-6.5 -6.25,-10.625 -3.75,-4.125 -8.5,-6.125 -4.75,-2 -9.625,-2 -6,0 -11.625,2.375 -5.5,2.25 -8.75,7.25 l -0.25,0 0,-32.50003 -17.75,0 z"/></g><g style="font-style:normal;font-weight:400;font-size:40px;line-height:125%;font-family:sans-serif;letter-spacing:0;word-spacing:0;fill:#0595bc;fill-opacity:1;stroke:none;stroke-width:1px;stroke-linecap:butt;stroke-linejoin:miter;stroke-opacity:1" id="text20466"><path style="font-style:normal;font-variant:normal;font-weight:700;font-stretch:normal;font-size:125px;font-family:'Helvetica Neue';-inkscape-font-specification:'Helvetica Neue Bold';fill:#0595bc;fill-opacity:1" id="path4981" d="m 2214.5815,1043.1304 q 0,-3.875 0.75,-7.625 0.75,-3.75 2.5,-6.625 1.875,-2.875 4.875,-4.625 3,-1.875 7.5,-1.875 4.5,0 7.5,1.875 3.125,1.75 4.875,4.625 1.875,2.875 2.625,6.625 0.75,3.75 0.75,7.625 0,3.875 -0.75,7.625 -0.75,3.625 -2.625,6.625 -1.75,2.875 -4.875,4.625 -3,1.75 -7.5,1.75 -4.5,0 -7.5,-1.75 -3,-1.75 -4.875,-4.625 -1.75,-3 -2.5,-6.625 -0.75,-3.75 -0.75,-7.625 z m -17.75,0 q 0,7.75 2.375,14 2.375,6.25 6.75,10.75 4.375,4.375 10.5,6.75 6.125,2.375 13.75,2.375 7.625,0 13.75,-2.375 6.25,-2.375 10.625,-6.75 4.375,-4.5 6.75,-10.75 2.375,-6.25 2.375,-14 0,-7.75 -2.375,-14 -2.375,-6.375 -6.75,-10.75 -4.375,-4.5 -10.625,-6.875 -6.125,-2.5 -13.75,-2.5 -7.625,0 -13.75,2.5 -6.125,2.375 -10.5,6.875 -4.375,4.375 -6.75,10.75 -2.375,6.25 -2.375,14 z"/><path style="font-style:normal;font-variant:normal;font-weight:700;font-stretch:normal;font-size:125px;font-family:'Helvetica Neue';-inkscape-font-specification:'Helvetica Neue Bold';fill:#0595bc;fill-opacity:1" id="path4983" d="m 2320.8784,1042.8804 q 0,4 -0.75,7.75 -0.75,3.75 -2.5,6.75 -1.75,2.875 -4.75,4.625 -2.875,1.75 -7.25,1.75 -4.125,0 -7.125,-1.75 -2.875,-1.875 -4.875,-4.75 -1.875,-3 -2.75,-6.75 -0.875,-3.75 -0.875,-7.5 0,-4 0.75,-7.625 0.875,-3.75 2.625,-6.625 1.875,-2.875 4.875,-4.625 3,-1.75 7.375,-1.75 4.375,0 7.25,1.75 2.875,1.75 4.625,4.625 1.875,2.75 2.625,6.5 0.75,3.625 0.75,7.625 z m 0.25,24.25 0,8.25 16.875,0 0,-89.25003 -17.75,0 0,32.50003 -0.25,0 q -3,-4.75 -8.25,-7.125 -5.125,-2.5 -10.875,-2.5 -7.125,0 -12.5,2.875 -5.375,2.75 -9,7.375 -3.5,4.625 -5.375,10.75 -1.75,6 -1.75,12.5 0,6.75 1.75,13 1.875,6.25 5.375,11.125 3.625,4.75 9.125,7.625 5.5,2.75 12.75,2.75 6.375,0 11.375,-2.25 5.125,-2.375 8.25,-7.625 l 0.25,0 z"/><path style="font-style:normal;font-variant:normal;font-weight:700;font-stretch:normal;font-size:125px;font-family:'Helvetica Neue';-inkscape-font-specification:'Helvetica Neue Bold';fill:#0595bc;fill-opacity:1" id="path4985" d="m 2398.5503,1043.1304 q 0,4 -0.875,7.75 -0.875,3.75 -2.75,6.625 -1.875,2.875 -4.75,4.625 -2.75,1.625 -6.75,1.625 -3.875,0 -6.75,-1.625 -2.875,-1.75 -4.75,-4.625 -1.875,-2.875 -2.75,-6.625 -0.875,-3.75 -0.875,-7.75 0,-4.125 0.875,-7.875 0.875,-3.75 2.75,-6.625 1.875,-2.875 4.75,-4.5 2.875,-1.75 6.75,-1.75 4,0 6.75,1.75 2.875,1.625 4.75,4.5 1.875,2.875 2.75,6.625 0.875,3.75 0.875,7.875 z m -47.375,-57.00003 0,89.25003 16.875,0 0,-8.25 0.25,0 q 2.875,5.375 8.5,7.625 5.625,2.25 12.75,2.25 4.875,0 9.625,-2 4.75,-2 8.5,-6.125 3.875,-4.125 6.25,-10.5 2.375,-6.5 2.375,-15.375 0,-8.875 -2.375,-15.25 -2.375,-6.5 -6.25,-10.625 -3.75,-4.125 -8.5,-6.125 -4.75,-2 -9.625,-2 -6,0 -11.625,2.375 -5.5,2.25 -8.75,7.25 l -0.25,0 0,-32.50003 -17.75,0 z"/><path style="font-style:normal;font-variant:normal;font-weight:700;font-stretch:normal;font-size:125px;font-family:'Helvetica Neue';-inkscape-font-specification:'Helvetica Neue Bold';fill:#0595bc;fill-opacity:1" id="path4987" d="m 2471.5913,1033.5054 17.375,0 q -0.375,-6.25 -3,-10.75 -2.625,-4.625 -6.875,-7.625 -4.125,-3.125 -9.5,-4.625 -5.25,-1.5 -11,-1.5 -7.875,0 -14,2.625 -6.125,2.625 -10.375,7.375 -4.25,4.625 -6.5,11.125 -2.125,6.375 -2.125,13.875 0,7.25 2.375,13.375 2.375,6 6.625,10.375 4.25,4.375 10.25,6.875 6.125,2.375 13.375,2.375 12.875,0 21.125,-6.75 8.25,-6.75 10,-19.625 l -17.125,0 q -0.875,6 -4.375,9.625 -3.375,3.5 -9.75,3.5 -4.125,0 -7,-1.875 -2.875,-1.875 -4.625,-4.75 -1.625,-3 -2.375,-6.625 -0.75,-3.625 -0.75,-7.125 0,-3.625 0.75,-7.25 0.75,-3.75 2.5,-6.75 1.875,-3.125 4.75,-5 2.875,-2 7.125,-2 11.375,0 13.125,11.125 z"/></g></g></g></g></g></svg>